<svg xmlns="http://www.w3.org/2000/svg" width="80" height="80" viewBox="0 0 80 80" class="sc-giYglK dEohPc"><g fill="none" fill-rule="evenodd"><path fill="#FF7300" d="M68.917 22.694L62.914.5 0 17.218l6.005 22.203.003.008c3.762.764 6.96 3.556 8.023 7.482 1.063 3.928-.3 7.931-3.172 10.456l.003.01 6.005 22.204 62.915-16.718-6.003-22.192c-3.783-.75-7.001-3.55-8.068-7.492-1.064-3.942.31-7.961 3.206-10.485"></path><path fill="#FFF" d="M48.015 19.807c0 4.558-3.67 8.252-8.191 8.25-4.525-.001-8.189-3.697-8.188-8.256.002-4.558 3.67-8.251 8.194-8.25 4.522.002 8.186 3.698 8.185 8.256m-.667 11.733l-15.043-.012.008 31.226c0 2.424 1.59 4.138 3.837 4.202l11.175.006.023-35.421z"></path></g></svg>